{
    "asset" : {
        "generator" : "Khronos glTF Blender I/O v3.4.49",
        "version" : "2.0"
    },
    "scene" : 0,
    "scenes" : [
        {
            "name" : "Scene",
            "nodes" : [
                0,
                1,
                2,
                3,
                4,
                5,
                6,
                7,
                8,
                9,
                10
            ]
        }
    ],
    "nodes" : [
        {
            "name" : "IfcProject/Project Number"
        },
        {
            "name" : "IfcSite/Default"
        },
        {
            "name" : "IfcBuilding/"
        },
        {
            "mesh" : 0,
            "name" : "IfcWallStandardCase/Basic Wall:Generic - 8\":280025",
            "translation" : [
                -3.1953511238098145,
                0,
                -5.830538749694824
            ]
        },
        {
            "mesh" : 1,
            "name" : "IfcWallStandardCase/Basic Wall:Generic - 8\":280063",
            "rotation" : [
                0,
                -0.7071068286895752,
                0,
                0.7071067094802856
            ],
            "translation" : [
                13.975049018859863,
                0,
                -5.728939056396484
            ]
        },
        {
            "mesh" : 2,
            "name" : "IfcWallStandardCase/Basic Wall:Generic - 8\":280137",
            "rotation" : [
                0,
                1,
                0,
                7.549790126404332e-08
            ],
            "translation" : [
                13.873448371887207,
                0,
                1.4846609830856323
            ]
        },
        {
            "mesh" : 3,
            "name" : "IfcWallStandardCase/Basic Wall:Generic - 8\":280209",
            "rotation" : [
                0,
                0.7071068286895752,
                0,
                0.7071067094802856
            ],
            "translation" : [
                -3.0937511920928955,
                0,
                1.3830610513687134
            ]
        },
        {
            "name" : "IfcBuildingStorey/Level 1"
        },
        {
            "mesh" : 4,
            "name" : "IfcRoof/Basic Roof:Generic - 12\":280225",
            "translation" : [
                -3.1953511238098145,
                3.0480000972747803,
                1.5862610340118408
            ]
        },
        {
            "name" : "IfcBuildingStorey/Level 2",
            "translation" : [
                0,
                3.0480000972747803,
                0
            ]
        },
        {
            "name" : "IfcWallType/Basic Wall:Generic - 8\""
        }
    ],
    "materials" : [
        {
            "doubleSided" : true,
            "name" : "Default Wall",
            "pbrMetallicRoughness" : {
                "baseColorFactor" : [
                    0.800000011920929,
                    0.800000011920929,
                    0.800000011920929,
                    1
                ],
                "metallicFactor" : 0.5,
                "roughnessFactor" : 0.5
            }
        },
        {
            "doubleSided" : true,
            "name" : "Default Roof",
            "pbrMetallicRoughness" : {
                "baseColorFactor" : [
                    0.800000011920929,
                    0.800000011920929,
                    0.800000011920929,
                    1
                ],
                "metallicFactor" : 0.5,
                "roughnessFactor" : 0.5
            }
        }
    ],
    "meshes" : [
        {
            "name" : "109/234",
            "primitives" : [
                {
                    "attributes" : {
                        "POSITION" : 0,
                        "NORMAL" : 1
                    },
                    "indices" : 2,
                    "material" : 0
                }
            ]
        },
        {
            "name" : "109/309",
            "primitives" : [
                {
                    "attributes" : {
                        "POSITION" : 3,
                        "NORMAL" : 4
                    },
                    "indices" : 5,
                    "material" : 0
                }
            ]
        },
        {
            "name" : "109/385",
            "primitives" : [
                {
                    "attributes" : {
                        "POSITION" : 6,
                        "NORMAL" : 7
                    },
                    "indices" : 8,
                    "material" : 0
                }
            ]
        },
        {
            "name" : "109/422",
            "primitives" : [
                {
                    "attributes" : {
                        "POSITION" : 9,
                        "NORMAL" : 10
                    },
                    "indices" : 5,
                    "material" : 0
                }
            ]
        },
        {
            "name" : "109/519",
            "primitives" : [
                {
                    "attributes" : {
                        "POSITION" : 11,
                        "NORMAL" : 12
                    },
                    "indices" : 13,
                    "material" : 1
                }
            ]
        }
    ],
    "accessors" : [
        {
            "bufferView" : 0,
            "componentType" : 5126,
            "count" : 34,
            "max" : [
                17.27199935913086,
                6.0960001945495605,
                0.10159999877214432
            ],
            "min" : [
                -1.5987211554602254e-14,
                0,
                -0.10159999877214432
            ],
            "type" : "VEC3"
        },
        {
            "bufferView" : 1,
            "componentType" : 5126,
            "count" : 34,
            "type" : "VEC3"
        },
        {
            "bufferView" : 2,
            "componentType" : 5123,
            "count" : 48,
            "type" : "SCALAR"
        },
        {
            "bufferView" : 3,
            "componentType" : 5126,
            "count" : 24,
            "max" : [
                7.315199851989746,
                3.0480000972747803,
                0.10159999877214432
            ],
            "min" : [
                0,
                0,
                -0.10159999877214432
            ],
            "type" : "VEC3"
        },
        {
            "bufferView" : 4,
            "componentType" : 5126,
            "count" : 24,
            "type" : "VEC3"
        },
        {
            "bufferView" : 5,
            "componentType" : 5123,
            "count" : 36,
            "type" : "SCALAR"
        },
        {
            "bufferView" : 6,
            "componentType" : 5126,
            "count" : 38,
            "max" : [
                17.06879997253418,
                6.0960001945495605,
                0.10159999877214432
            ],
            "min" : [
                -1.5987211554602254e-14,
                0,
                -0.10159999877214432
            ],
            "type" : "VEC3"
        },
        {
            "bufferView" : 7,
            "componentType" : 5126,
            "count" : 38,
            "type" : "VEC3"
        },
        {
            "bufferView" : 8,
            "componentType" : 5123,
            "count" : 48,
            "type" : "SCALAR"
        },
        {
            "bufferView" : 9,
            "componentType" : 5126,
            "count" : 24,
            "max" : [
                7.111999988555908,
                3.0480000972747803,
                0.10159999877214432
            ],
            "min" : [
                1.509903313490213e-14,
                0,
                -0.10159999877214432
            ],
            "type" : "VEC3"
        },
        {
            "bufferView" : 10,
            "componentType" : 5126,
            "count" : 24,
            "type" : "VEC3"
        },
        {
            "bufferView" : 11,
            "componentType" : 5126,
            "count" : 38,
            "max" : [
                17.27199935913086,
                3.3712291717529297,
                0
            ],
            "min" : [
                0,
                0,
                -7.518400192260742
            ],
            "type" : "VEC3"
        },
        {
            "bufferView" : 12,
            "componentType" : 5126,
            "count" : 38,
            "type" : "VEC3"
        },
        {
            "bufferView" : 13,
            "componentType" : 5123,
            "count" : 60,
            "type" : "SCALAR"
        }
    ],
    "bufferViews" : [
        {
            "buffer" : 0,
            "byteLength" : 408,
            "byteOffset" : 0,
            "target" : 34962
        },
        {
            "buffer" : 0,
            "byteLength" : 408,
            "byteOffset" : 408,
            "target" : 34962
        },
        {
            "buffer" : 0,
            "byteLength" : 96,
            "byteOffset" : 816,
            "target" : 34963
        },
        {
            "buffer" : 0,
            "byteLength" : 288,
            "byteOffset" : 912,
            "target" : 34962
        },
        {
            "buffer" : 0,
            "byteLength" : 288,
            "byteOffset" : 1200,
            "target" : 34962
        },
        {
            "buffer" : 0,
            "byteLength" : 72,
            "byteOffset" : 1488,
            "target" : 34963
        },
        {
            "buffer" : 0,
            "byteLength" : 456,
            "byteOffset" : 1560,
            "target" : 34962
        },
        {
            "buffer" : 0,
            "byteLength" : 456,
            "byteOffset" : 2016,
            "target" : 34962
        },
        {
            "buffer" : 0,
            "byteLength" : 96,
            "byteOffset" : 2472,
            "target" : 34963
        },
        {
            "buffer" : 0,
            "byteLength" : 288,
            "byteOffset" : 2568,
            "target" : 34962
        },
        {
            "buffer" : 0,
            "byteLength" : 288,
            "byteOffset" : 2856,
            "target" : 34962
        },
        {
            "buffer" : 0,
            "byteLength" : 456,
            "byteOffset" : 3144,
            "target" : 34962
        },
        {
            "buffer" : 0,
            "byteLength" : 456,
            "byteOffset" : 3600,
            "target" : 34962
        },
        {
            "buffer" : 0,
            "byteLength" : 120,
            "byteOffset" : 4056,
            "target" : 34963
        }
    ],
    "buffers" : [
        {
            "byteLength" : 4176,
            "uri" : "data:application/octet-stream;base64,"
        }
    ]
}
